<?xml version="1.0" encoding="UTF-8" standalone="no"?>
<!-- Created with Inkscape (http://www.inkscape.org/) -->

<svg
   xmlns:dc="http://purl.org/dc/elements/1.1/"
   xmlns:cc="http://creativecommons.org/ns#"
   xmlns:rdf="http://www.w3.org/1999/02/22-rdf-syntax-ns#"
   xmlns:svg="http://www.w3.org/2000/svg"
   xmlns="http://www.w3.org/2000/svg"
   xmlns:sodipodi="http://sodipodi.sourceforge.net/DTD/sodipodi-0.dtd"
   xmlns:inkscape="http://www.inkscape.org/namespaces/inkscape"
   width="210mm"
   height="297mm"
   viewBox="0 0 210 297"
   version="1.1"
   id="svg8"
   inkscape:version="0.92.2 (30a58d1, 2017-08-07)"
   sodipodi:docname="hexagono-contact.svg">
  <g
     inkscape:label="Capa 1"
     inkscape:groupmode="layer"
     id="layer1">
    <path
       sodipodi:type="star"
       id="path3739"
       sodipodi:sides="6"
       sodipodi:cx="99.029752"
       sodipodi:cy="124.64287"
       sodipodi:r1="99.029755"
       sodipodi:r2="85.762283"
       sodipodi:arg1="-1.5707963"
       sodipodi:arg2="-1.0471976"
       inkscape:flatsided="true"
       inkscape:rounded="0.06"
       inkscape:randomized="0"
       d="m 99.029757,25.613113 c 5.941783,1e-6 82.791393,44.369143 85.762283,49.51488 2.97089,5.145737 2.97089,93.884017 0,99.029757 -2.9709,5.14573 -79.8205,49.51487 -85.762288,49.51487 -5.941785,0 -82.791389,-44.36914 -85.762282,-49.51488 -2.970892,-5.14573 -2.97089,-93.884015 3e-6,-99.029752 2.970892,-5.145736 79.820499,-49.514875 85.762284,-49.514875 z"
       inkscape:transform-center-x="1.8761905e-06"
       inkscape:transform-center-y="-1.3607799e-06" />
    <path
       style="fill:#ffffff;stroke-width:0.26458332"
       d="M 88.162981,218.57035 C 61.12583,204.89939 14.594698,176.88115 13.292592,173.48791 c -0.849417,-2.21355 -1.920396,-29.91301 -1.90905,-49.37508 0.01332,-22.85262 1.089961,-46.239422 2.226447,-48.362962 2.141257,-4.00098 51.906405,-33.781246 76.543564,-45.804905 l 8.876204,-4.33185 8.132723,3.941574 c 24.27202,11.763565 75.1397,42.136186 77.28613,46.146821 1.10767,2.06972 2.26356,27.176872 2.26356,49.167282 0,18.88558 -1.08879,46.45226 -1.92029,48.61912 -1.80964,4.71584 -79.55135,49.68738 -85.814156,49.64124 -1.003956,-0.008 -5.870588,-2.05885 -10.814743,-4.5588 z"
       id="path71"
       inkscape:connector-curvature="0" />
    <g
       id="g427"
       transform="matrix(0.23623606,0,0,0.24539126,38.547189,60.682164)"
       style="stroke-width:1.09890425">
      <g
         id="g370"
         style="stroke-width:1.09890425">
        <path
           id="path366"
           d="m 480.737,414.086 c -10.786,-15.799 -25.828,-26.767 -43.5,-31.717 -0.172,-0.048 -0.346,-0.09 -0.521,-0.127 l -63.821,-13.349 -17.179,-26.049 c -0.089,-0.135 -0.182,-0.267 -0.278,-0.396 -2.604,-3.471 -6.566,-5.761 -10.874,-6.284 -4.306,-0.522 -8.701,0.753 -12.059,3.5 -0.052,0.042 -0.103,0.085 -0.153,0.128 l -76.325,65.701 -76.325,-65.701 c -0.051,-0.043 -0.102,-0.086 -0.153,-0.128 -3.358,-2.748 -7.757,-4.023 -12.06,-3.5 -4.307,0.523 -8.27,2.813 -10.873,6.284 -0.097,0.129 -0.19,0.261 -0.278,0.396 l -17.179,26.049 -63.821,13.349 c -0.175,0.037 -0.349,0.079 -0.521,0.127 -17.672,4.951 -32.714,15.918 -43.5,31.717 -9.866,14.45 -15.299,31.891 -15.299,49.108 v 19.843 c 0,15.999 14.355,29.016 32.001,29.016 h 183.985 c 0.01,0 0.02,10e-4 0.03,10e-4 0.011,0 0.022,-10e-4 0.033,-10e-4 h 47.918 c 0.011,0 0.022,10e-4 0.033,10e-4 0.01,0 0.02,-10e-4 0.03,-10e-4 h 183.985 c 17.646,0 32.001,-13.017 32.001,-29.016 v -19.843 c 0.002,-17.217 -5.431,-34.658 -15.297,-49.108 z m -138.109,-62.027 15.674,23.767 -55.236,75.949 -17.378,-17.377 c -0.002,-0.002 -0.004,-0.004 -0.006,-0.006 L 267.78,416.49 Z m -94.601,119.993 h 16.001 c 0.481,0 0.958,-0.019 1.432,-0.046 l 4.81,24.048 h -28.485 l 4.81,-24.048 c 0.474,0.027 0.951,0.046 1.432,0.046 z m 24.001,-24.001 c 0,4.411 -3.589,8 -8,8 h -16.001 c -4.412,0 -8,-3.589 -8,-8 v -4.687 l 16.001,-16.001 16.001,16.001 v 4.687 z m -102.601,-95.992 74.848,64.43 -17.902,17.902 c -0.002,0.002 -0.004,0.004 -0.006,0.006 l -17.378,17.377 -55.236,-75.949 z M 32.018,483.037 v -19.843 c 0,-25.88 16.097,-56.588 46.866,-65.349 l 61.712,-12.908 60.959,83.819 c 1.376,1.892 3.511,3.087 5.844,3.27 0.209,0.016 0.418,0.024 0.626,0.024 2.113,0 4.15,-0.837 5.656,-2.343 l 12.262,-12.262 c 1.309,3.066 3.242,5.802 5.634,8.058 l -6.11,30.549 H 48.019 c -8.822,10e-4 -16.001,-5.838 -16.001,-13.015 z m 448.018,0 c 0,7.177 -7.178,13.016 -16.001,13.016 H 286.587 l -6.11,-30.549 c 2.392,-2.255 4.325,-4.992 5.634,-8.058 l 12.262,12.262 c 1.506,1.506 3.543,2.343 5.656,2.343 0.208,0 0.417,-0.008 0.626,-0.024 2.333,-0.183 4.468,-1.378 5.844,-3.27 l 60.959,-83.819 61.712,12.908 c 30.77,8.761 46.866,39.469 46.866,65.349 z"
           inkscape:connector-curvature="0"
           style="stroke-width:1.09890425" />
        <path
           id="path368"
           d="m 120.022,254.686 v 97.38 c 0,4.418 3.582,8 8,8 4.418,0 8,-3.582 8,-8 v -96.004 h 7.33 c 5.937,18.724 15.206,36.329 27.295,51.301 23.268,28.815 53.618,44.685 85.459,44.685 24.659,0 48.591,-9.593 69.21,-27.742 0.099,-0.087 0.186,-0.182 0.279,-0.272 1.281,0.084 2.564,0.14 3.852,0.14 9.347,0 18.854,-2.214 28.096,-6.688 30.2,-14.617 50.49,-48.946 50.49,-85.423 V 184.06 c 0,-13.234 -10.767,-24.001 -24,-24.001 h -3.274 c 17.729,-67.605 9.697,-123.106 2.596,-139.246 -0.012,-0.028 -0.028,-0.053 -0.041,-0.081 -0.071,-0.156 -0.149,-0.306 -0.229,-0.456 -0.047,-0.088 -0.092,-0.179 -0.142,-0.265 -0.076,-0.13 -0.159,-0.256 -0.242,-0.381 -0.066,-0.1 -0.129,-0.201 -0.199,-0.297 -0.071,-0.098 -0.148,-0.19 -0.223,-0.284 -0.091,-0.114 -0.181,-0.229 -0.278,-0.338 -0.061,-0.068 -0.127,-0.132 -0.19,-0.198 -0.118,-0.123 -0.235,-0.246 -0.36,-0.361 -0.055,-0.051 -0.115,-0.097 -0.171,-0.146 -0.137,-0.119 -0.275,-0.237 -0.419,-0.347 -0.063,-0.047 -0.129,-0.089 -0.193,-0.135 -0.143,-0.102 -0.286,-0.203 -0.436,-0.295 -0.081,-0.05 -0.167,-0.094 -0.25,-0.141 -0.136,-0.078 -0.272,-0.156 -0.413,-0.226 -0.105,-0.052 -0.215,-0.096 -0.322,-0.143 -0.125,-0.055 -0.248,-0.112 -0.375,-0.161 -0.121,-0.046 -0.246,-0.083 -0.37,-0.124 -0.12,-0.039 -0.239,-0.081 -0.361,-0.115 -0.123,-0.034 -0.248,-0.058 -0.373,-0.086 -0.13,-0.029 -0.259,-0.061 -0.391,-0.083 -0.111,-0.019 -0.224,-0.03 -0.336,-0.044 -0.151,-0.02 -0.301,-0.04 -0.453,-0.05 -0.094,-0.006 -0.189,-0.006 -0.284,-0.01 -0.173,-0.006 -0.347,-0.01 -0.521,-0.005 -0.083,0.002 -0.166,0.011 -0.249,0.016 -0.184,0.012 -0.368,0.026 -0.552,0.05 -0.027,0.004 -0.054,0.004 -0.082,0.008 -20.061,2.866 -44.351,-2.012 -70.066,-7.175 -43.119,-8.658 -87.672,-17.582 -122.508,7.26 -0.524,-0.108 -1.066,-0.165 -1.622,-0.165 -35.729,0 -60.682,29.608 -60.682,72.002 0,19.63 4.947,49.438 9.335,72.021 h -1.335 c -13.234,0 -24,10.767 -24,24.001 v 48.002 c 0,10.43 6.689,19.323 16,22.625 z m 230.55,48.397 c -16.883,8.171 -34.197,6.476 -48.86,-4.742 1.484,-3.117 2.317,-6.602 2.317,-10.277 0,-13.234 -10.767,-24.001 -24,-24.001 -13.233,0 -24,10.767 -24,24.001 0,13.234 10.767,24 24,24 3.702,0 7.211,-0.844 10.345,-2.347 0.217,0.217 0.445,0.426 0.692,0.621 4.715,3.73 9.702,6.7 14.867,8.928 -15.45,11 -32.483,16.781 -49.826,16.781 -26.911,0 -52.84,-13.757 -73.01,-38.736 -19.908,-24.655 -31.326,-57.284 -31.326,-89.521 v -9.112 c 0,-28.498 16.161,-66.981 21.655,-79.238 55.276,-6.495 99.31,-0.006 126.772,6.703 24.089,5.886 39.896,12.934 45.595,15.701 l 14.428,34.33 v 31.68 c 0,26.46 -7.696,53.45 -21.67,75.999 -2.327,3.755 -1.169,8.687 2.586,11.014 1.313,0.813 2.769,1.201 4.207,1.201 2.678,0 5.294,-1.344 6.808,-3.787 6.968,-11.243 12.517,-23.484 16.531,-36.218 h 15.351 c 1.545,0 3.055,-0.152 4.52,-0.433 -6.173,20.8 -20.096,38.797 -37.982,47.453 z m -62.543,-15.019 c 0,4.411 -3.589,8 -8,8 -4.411,0 -8,-3.589 -8,-8 0,-4.412 3.589,-8.001 8,-8.001 4.411,0 8,3.589 8,8.001 z M 392.033,184.06 v 48.002 c 0,4.411 -3.589,8 -8,8 h -11.175 c 2.208,-10.635 3.363,-21.46 3.363,-32.209 v -31.794 h 7.812 c 4.411,0 8,3.589 8,8.001 z M 180.704,32.035 c 0.772,0 1.517,-0.115 2.223,-0.32 2.342,0.671 4.958,0.277 7.047,-1.31 29.374,-22.312 71.231,-13.906 111.709,-5.778 21.237,4.265 41.547,8.343 60.306,8.343 2.89,0 5.74,-0.109 8.555,-0.317 4.922,17.755 9.586,62.524 -3.828,117.681 l -7.311,-17.395 c -0.697,-1.658 -1.932,-3.033 -3.507,-3.903 -2.952,-1.63 -73.617,-39.764 -188.896,-24.933 -0.019,0.002 -0.037,0.008 -0.056,0.01 -0.153,0.021 -0.304,0.052 -0.456,0.082 -0.113,0.022 -0.228,0.04 -0.339,0.066 -0.099,0.024 -0.196,0.057 -0.295,0.084 -0.913,0.256 -1.757,0.659 -2.498,1.192 -0.003,0.002 -0.007,0.004 -0.011,0.007 -0.064,0.046 -0.122,0.099 -0.184,0.146 -0.525,0.402 -1.007,0.869 -1.426,1.403 -0.016,0.02 -0.033,0.038 -0.048,0.057 -0.083,0.107 -0.156,0.223 -0.234,0.334 -0.074,0.107 -0.152,0.211 -0.221,0.322 -0.05,0.081 -0.094,0.167 -0.141,0.25 -0.087,0.15 -0.173,0.301 -0.25,0.457 -0.007,0.015 -0.016,0.028 -0.023,0.043 -0.619,1.282 -9.674,20.183 -16.721,43.296 -3.985,-21.14 -8.077,-46.957 -8.077,-63.816 0,-38.685 22.442,-56.001 44.682,-56.001 z M 120.022,184.06 c 0,-4.412 3.589,-8.001 8,-8.001 h 4.582 c 1.51,7.145 2.689,12.345 3.166,14.42 v 17.311 c 0,10.801 1.163,21.643 3.384,32.272 h -11.132 c -4.412,0 -8,-3.589 -8,-8 V 184.06 Z"
           inkscape:connector-curvature="0"
           style="stroke-width:1.09890425" />
      </g>
      <g
         id="g372"
         style="stroke-width:1.09890425" />
      <g
         id="g374"
         style="stroke-width:1.09890425" />
      <g
         id="g376"
         style="stroke-width:1.09890425" />
      <g
         id="g378"
         style="stroke-width:1.09890425" />
      <g
         id="g380"
         style="stroke-width:1.09890425" />
      <g
         id="g382"
         style="stroke-width:1.09890425" />
      <g
         id="g384"
         style="stroke-width:1.09890425" />
      <g
         id="g386"
         style="stroke-width:1.09890425" />
      <g
         id="g388"
         style="stroke-width:1.09890425" />
      <g
         id="g390"
         style="stroke-width:1.09890425" />
      <g
         id="g392"
         style="stroke-width:1.09890425" />
      <g
         id="g394"
         style="stroke-width:1.09890425" />
      <g
         id="g396"
         style="stroke-width:1.09890425" />
      <g
         id="g398"
         style="stroke-width:1.09890425" />
      <g
         id="g400"
         style="stroke-width:1.09890425" />
    </g>
  </g>
</svg>
