<?xml version="1.0" encoding="UTF-8" standalone="no"?>
<!-- Created with Inkscape (http://www.inkscape.org/) -->

<svg
   xmlns:dc="http://purl.org/dc/elements/1.1/"
   xmlns:cc="http://creativecommons.org/ns#"
   xmlns:rdf="http://www.w3.org/1999/02/22-rdf-syntax-ns#"
   xmlns:svg="http://www.w3.org/2000/svg"
   xmlns="http://www.w3.org/2000/svg"
   xmlns:sodipodi="http://sodipodi.sourceforge.net/DTD/sodipodi-0.dtd"
   xmlns:inkscape="http://www.inkscape.org/namespaces/inkscape"
   width="210mm"
   height="297mm"
   viewBox="0 0 210 297"
   version="1.1"
   id="svg8"
   inkscape:version="0.92.2 (30a58d1, 2017-08-07)"
   sodipodi:docname="hexagono-skills.svg">
  <defs
     id="defs2" />
  <sodipodi:namedview
     id="base"
     pagecolor="#ffffff"
     bordercolor="#666666"
     borderopacity="1.0"
     inkscape:pageopacity="0.0"
     inkscape:pageshadow="2"
     inkscape:zoom="0.35"
     inkscape:cx="-340"
     inkscape:cy="788.57143"
     inkscape:document-units="mm"
     inkscape:current-layer="layer1"
     showgrid="false"
     inkscape:window-width="1853"
     inkscape:window-height="1056"
     inkscape:window-x="67"
     inkscape:window-y="24"
     inkscape:window-maximized="1" />
  <metadata
     id="metadata5">
    <rdf:RDF>
      <cc:Work
         rdf:about="">
        <dc:format>image/svg+xml</dc:format>
        <dc:type
           rdf:resource="http://purl.org/dc/dcmitype/StillImage" />
        <dc:title></dc:title>
      </cc:Work>
    </rdf:RDF>
  </metadata>
  <g
     inkscape:label="Capa 1"
     inkscape:groupmode="layer"
     id="layer1">
    <path
       sodipodi:type="star"
       id="path3739"
       sodipodi:sides="6"
       sodipodi:cx="99.029752"
       sodipodi:cy="124.64287"
       sodipodi:r1="99.029755"
       sodipodi:r2="85.762283"
       sodipodi:arg1="-1.5707963"
       sodipodi:arg2="-1.0471976"
       inkscape:flatsided="true"
       inkscape:rounded="0.06"
       inkscape:randomized="0"
       d="m 99.029757,25.613113 c 5.941783,1e-6 82.791393,44.369143 85.762283,49.51488 2.97089,5.145737 2.97089,93.884017 0,99.029757 -2.9709,5.14573 -79.8205,49.51487 -85.762288,49.51487 -5.941785,0 -82.791389,-44.36914 -85.762282,-49.51488 -2.970892,-5.14573 -2.97089,-93.884015 3e-6,-99.029752 2.970892,-5.145736 79.820499,-49.514875 85.762284,-49.514875 z"
       inkscape:transform-center-x="1.8761905e-06"
       inkscape:transform-center-y="-1.3607799e-06" />
    <path
       style="fill:#ffffff;stroke-width:0.26458332"
       d="M 88.162981,218.57035 C 61.12583,204.89939 14.594698,176.88115 13.292592,173.48791 c -0.849417,-2.21355 -1.920396,-29.91301 -1.90905,-49.37508 0.01332,-22.85262 1.089961,-46.239422 2.226447,-48.362962 2.141257,-4.00098 51.906405,-33.781246 76.543564,-45.804905 l 8.876204,-4.33185 8.132723,3.941574 c 24.27202,11.763565 75.1397,42.136186 77.28613,46.146821 1.10767,2.06972 2.26356,27.176872 2.26356,49.167282 0,18.88558 -1.08879,46.45226 -1.92029,48.61912 -1.80964,4.71584 -79.55135,49.68738 -85.814156,49.64124 -1.003956,-0.008 -5.870588,-2.05885 -10.814743,-4.5588 z"
       id="path71"
       inkscape:connector-curvature="0" />
    <g
       id="g164"
       transform="matrix(0.23563399,0,0,0.22255312,40.45225,69.359268)"
       style="stroke-width:1.15538478">
      <g
         id="g96"
         transform="translate(1,1)"
         style="stroke-width:1.15538478">
        <g
           id="g94"
           style="stroke-width:1.15538478">
          <g
             id="g92"
             style="stroke-width:1.15538478">
            <path
               id="path70"
               d="m 477.426,57.754 h -75.541 v -8.393 c 0,-9.233 -7.554,-16.787 -16.787,-16.787 h -25.18 V 24.18 C 359.918,9.911 349.007,-1 334.738,-1 h -50.361 c -14.269,0 -25.18,10.911 -25.18,25.18 v 8.393 h -25.18 c -9.233,0 -16.787,7.554 -16.787,16.787 v 8.393 h -75.541 c -5.036,0 -8.393,3.357 -8.393,8.393 v 428.066 c 0,5.036 3.357,8.393 8.393,8.393 h 335.738 c 5.036,0 8.393,-3.357 8.393,-8.393 V 66.148 c 0,-5.037 -3.358,-8.394 -8.394,-8.394 z m -50.36,318.951 h -58.754 c -5.036,0 -8.393,3.357 -8.393,8.393 v 58.754 H 192.049 V 108.115 h 25.18 c 0,9.233 7.554,16.787 16.787,16.787 h 151.082 c 9.233,0 16.787,-7.554 16.787,-16.787 h 25.18 v 268.59 z m -11.751,16.787 -38.61,38.61 v -38.61 z M 234.016,49.361 h 33.574 c 5.036,0 8.393,-3.357 8.393,-8.393 V 24.18 c 0,-5.036 3.357,-8.393 8.393,-8.393 h 50.361 c 5.036,0 8.393,3.357 8.393,8.393 v 16.787 c 0,5.036 3.357,8.393 8.393,8.393 h 33.574 v 16.787 33.574 8.393 H 234.016 V 99.721 66.148 Z M 469.033,485.82 H 150.082 V 74.541 h 67.148 v 16.787 h -33.574 c -5.036,0 -8.393,3.357 -8.393,8.393 v 352.525 c 0,5.036 3.357,8.393 8.393,8.393 h 184.656 c 3.343,0 5.939,-1.486 7.312,-3.954 l 64.275,-64.275 c 2.021,-1.124 3.383,-3.066 3.809,-5.571 0.161,-0.714 0.212,-1.451 0.146,-2.2 V 99.721 c 0,-5.036 -3.357,-8.393 -8.393,-8.393 H 401.887 V 74.541 h 67.148 V 485.82 Z"
               inkscape:connector-curvature="0"
               style="stroke-width:1.15538478" />
            <path
               id="path72"
               d="m 275.984,150.082 h -50.361 c -5.036,0 -8.393,3.357 -8.393,8.393 v 50.361 c 0,5.036 3.357,8.393 8.393,8.393 h 50.361 c 5.036,0 8.393,-3.357 8.393,-8.393 v -50.361 c 0,-5.036 -3.357,-8.393 -8.393,-8.393 z m -8.394,50.361 h -33.574 v -33.574 h 33.574 z"
               inkscape:connector-curvature="0"
               style="stroke-width:1.15538478" />
            <path
               id="path74"
               d="m 275.984,242.41 h -50.361 c -5.036,0 -8.393,3.357 -8.393,8.393 v 50.361 c 0,5.036 3.357,8.393 8.393,8.393 h 50.361 c 5.036,0 8.393,-3.357 8.393,-8.393 v -50.361 c 0,-5.036 -3.357,-8.393 -8.393,-8.393 z m -8.394,50.36 h -33.574 v -33.574 h 33.574 z"
               inkscape:connector-curvature="0"
               style="stroke-width:1.15538478" />
            <path
               id="path76"
               d="m 275.984,334.738 h -50.361 c -5.036,0 -8.393,3.357 -8.393,8.393 v 50.361 c 0,5.036 3.357,8.393 8.393,8.393 h 50.361 c 5.036,0 8.393,-3.357 8.393,-8.393 v -50.361 c 0,-5.036 -3.357,-8.393 -8.393,-8.393 z m -8.394,50.36 h -33.574 v -33.574 h 33.574 z"
               inkscape:connector-curvature="0"
               style="stroke-width:1.15538478" />
            <path
               id="path78"
               d="m 393.492,150.082 h -75.541 c -5.036,0 -8.393,3.357 -8.393,8.393 0,5.036 3.357,8.393 8.393,8.393 h 75.541 c 5.036,0 8.393,-3.357 8.393,-8.393 0,-5.036 -3.357,-8.393 -8.393,-8.393 z"
               inkscape:connector-curvature="0"
               style="stroke-width:1.15538478" />
            <path
               id="path80"
               d="m 317.951,208.836 h 50.361 c 5.036,0 8.393,-3.357 8.393,-8.393 0,-5.036 -3.357,-8.393 -8.393,-8.393 h -50.361 c -5.036,0 -8.393,3.357 -8.393,8.393 0,5.036 3.357,8.393 8.393,8.393 z"
               inkscape:connector-curvature="0"
               style="stroke-width:1.15538478" />
            <path
               id="path82"
               d="m 393.492,242.41 h -75.541 c -5.036,0 -8.393,3.357 -8.393,8.393 0,5.036 3.357,8.393 8.393,8.393 h 75.541 c 5.036,0 8.393,-3.357 8.393,-8.393 0,-5.036 -3.357,-8.393 -8.393,-8.393 z"
               inkscape:connector-curvature="0"
               style="stroke-width:1.15538478" />
            <path
               id="path84"
               d="m 317.951,301.164 h 50.361 c 5.036,0 8.393,-3.357 8.393,-8.393 0,-5.036 -3.357,-8.393 -8.393,-8.393 h -50.361 c -5.036,0 -8.393,3.357 -8.393,8.393 0,5.036 3.357,8.393 8.393,8.393 z"
               inkscape:connector-curvature="0"
               style="stroke-width:1.15538478" />
            <path
               id="path86"
               d="m 393.492,343.131 h -75.541 c -5.036,0 -8.393,3.357 -8.393,8.393 0,5.036 3.357,8.393 8.393,8.393 h 75.541 c 5.036,0 8.393,-3.357 8.393,-8.393 0,-5.036 -3.357,-8.393 -8.393,-8.393 z"
               inkscape:connector-curvature="0"
               style="stroke-width:1.15538478" />
            <path
               id="path88"
               d="m 334.738,385.098 h -16.787 c -5.036,0 -8.393,3.357 -8.393,8.393 0,5.036 3.357,8.393 8.393,8.393 h 16.787 c 5.036,0 8.393,-3.357 8.393,-8.393 0,-5.035 -3.357,-8.393 -8.393,-8.393 z"
               inkscape:connector-curvature="0"
               style="stroke-width:1.15538478" />
            <path
               id="path90"
               d="M 99.721,91.328 V 57.754 32.574 C 99.721,14.108 84.613,-1 66.148,-1 H 49.361 C 30.895,-1 15.787,14.108 15.787,32.574 v 25.18 33.574 335.738 c 0,1.41 0.541,3.077 1.446,4.572 L 50.2,497.57 c 1.679,3.357 4.197,5.036 7.554,5.036 3.357,0 5.875,-1.679 7.554,-4.197 l 33.574,-67.148 c 1.679,-2.518 1.679,-4.197 0.839,-6.715 z M 32.574,414.475 V 99.721 h 16.787 v 311.45 c -2.882,0.305 -5.752,0.761 -8.598,1.367 -2.73,0.493 -5.459,1.118 -8.189,1.937 z m 0,-348.327 H 82.935 V 82.935 H 32.574 Z M 66.148,411.087 V 99.721 H 82.935 V 414.458 C 77.443,412.754 71.817,411.63 66.148,411.087 Z M 49.361,15.787 h 16.787 c 9.233,0 16.787,7.554 16.787,16.787 V 49.361 H 32.574 V 32.574 c 0,-9.233 7.554,-16.787 16.787,-16.787 z M 57.754,475.748 36.008,431.42 c 11.889,-4.134 24.921,-4.82 37.188,-2.047 0.247,0.06 0.494,0.114 0.74,0.177 0.167,0.04 0.331,0.089 0.498,0.13 1.724,0.458 3.44,0.982 5.143,1.583 z"
               inkscape:connector-curvature="0"
               style="stroke-width:1.15538478" />
          </g>
        </g>
      </g>
      <g
         id="g98"
         style="stroke-width:1.15538478" />
      <g
         id="g100"
         style="stroke-width:1.15538478" />
      <g
         id="g102"
         style="stroke-width:1.15538478" />
      <g
         id="g104"
         style="stroke-width:1.15538478" />
      <g
         id="g106"
         style="stroke-width:1.15538478" />
      <g
         id="g108"
         style="stroke-width:1.15538478" />
      <g
         id="g110"
         style="stroke-width:1.15538478" />
      <g
         id="g112"
         style="stroke-width:1.15538478" />
      <g
         id="g114"
         style="stroke-width:1.15538478" />
      <g
         id="g116"
         style="stroke-width:1.15538478" />
      <g
         id="g118"
         style="stroke-width:1.15538478" />
      <g
         id="g120"
         style="stroke-width:1.15538478" />
      <g
         id="g122"
         style="stroke-width:1.15538478" />
      <g
         id="g124"
         style="stroke-width:1.15538478" />
      <g
         id="g126"
         style="stroke-width:1.15538478" />
    </g>
  </g>
</svg>
