<?xml version="1.0" encoding="UTF-8" standalone="no"?>
<!-- Created with Inkscape (http://www.inkscape.org/) -->

<svg
   xmlns:dc="http://purl.org/dc/elements/1.1/"
   xmlns:cc="http://creativecommons.org/ns#"
   xmlns:rdf="http://www.w3.org/1999/02/22-rdf-syntax-ns#"
   xmlns:svg="http://www.w3.org/2000/svg"
   xmlns="http://www.w3.org/2000/svg"
   xmlns:sodipodi="http://sodipodi.sourceforge.net/DTD/sodipodi-0.dtd"
   xmlns:inkscape="http://www.inkscape.org/namespaces/inkscape"
   width="210mm"
   height="297mm"
   viewBox="0 0 210 297"
   version="1.1"
   id="svg8"
   inkscape:version="0.92.2 (30a58d1, 2017-08-07)"
   sodipodi:docname="hexagono-brief.svg">
  <defs
     id="defs2" />
  <sodipodi:namedview
     id="base"
     pagecolor="#ffffff"
     bordercolor="#666666"
     borderopacity="1.0"
     inkscape:pageopacity="0.0"
     inkscape:pageshadow="2"
     inkscape:zoom="0.35"
     inkscape:cx="-340"
     inkscape:cy="788.57143"
     inkscape:document-units="mm"
     inkscape:current-layer="layer1"
     showgrid="false"
     inkscape:window-width="1853"
     inkscape:window-height="1056"
     inkscape:window-x="67"
     inkscape:window-y="24"
     inkscape:window-maximized="1" />
  <metadata
     id="metadata5">
    <rdf:RDF>
      <cc:Work
         rdf:about="">
        <dc:format>image/svg+xml</dc:format>
        <dc:type
           rdf:resource="http://purl.org/dc/dcmitype/StillImage" />
        <dc:title></dc:title>
      </cc:Work>
    </rdf:RDF>
  </metadata>
  <g
     inkscape:label="Capa 1"
     inkscape:groupmode="layer"
     id="layer1">
    <path
       sodipodi:type="star"
       id="path3739"
       sodipodi:sides="6"
       sodipodi:cx="99.029752"
       sodipodi:cy="124.64287"
       sodipodi:r1="99.029755"
       sodipodi:r2="85.762283"
       sodipodi:arg1="-1.5707963"
       sodipodi:arg2="-1.0471976"
       inkscape:flatsided="true"
       inkscape:rounded="0.06"
       inkscape:randomized="0"
       d="m 99.029757,25.613113 c 5.941783,1e-6 82.791393,44.369143 85.762283,49.51488 2.97089,5.145737 2.97089,93.884017 0,99.029757 -2.9709,5.14573 -79.8205,49.51487 -85.762288,49.51487 -5.941785,0 -82.791389,-44.36914 -85.762282,-49.51488 -2.970892,-5.14573 -2.97089,-93.884015 3e-6,-99.029752 2.970892,-5.145736 79.820499,-49.514875 85.762284,-49.514875 z"
       inkscape:transform-center-x="1.8761905e-06"
       inkscape:transform-center-y="-1.3607799e-06" />
    <path
       style="fill:#ffffff;stroke-width:0.26458332"
       d="M 88.162981,218.57035 C 61.12583,204.89939 14.594698,176.88115 13.292592,173.48791 c -0.849417,-2.21355 -1.920396,-29.91301 -1.90905,-49.37508 0.01332,-22.85262 1.089961,-46.239422 2.226447,-48.362962 2.141257,-4.00098 51.906405,-33.781246 76.543564,-45.804905 l 8.876204,-4.33185 8.132723,3.941574 c 24.27202,11.763565 75.1397,42.136186 77.28613,46.146821 1.10767,2.06972 2.26356,27.176872 2.26356,49.167282 0,18.88558 -1.08879,46.45226 -1.92029,48.61912 -1.80964,4.71584 -79.55135,49.68738 -85.814156,49.64124 -1.003956,-0.008 -5.870588,-2.05885 -10.814743,-4.5588 z"
       id="path71"
       inkscape:connector-curvature="0" />
    <g
       id="g4628"
       transform="matrix(0.26458333,0,0,0.26458333,35.065873,45.560267)">
      <g
         id="g4571"
         transform="matrix(0.86607143,0,0,0.77681911,26.585581,89.348114)"
         style="stroke-width:1.21916699">
        <g
           id="g4569"
           style="stroke-width:1.21916699">
          <path
             id="path4567"
             d="m 511.038,161.21 c 0,-33.28 -26.453,-59.733 -59.733,-59.733 H 399.72 C 395.693,56.273 359.976,20.556 314.772,16.529 V 7.61 c 0,-2.56 -1.707,-5.12 -3.413,-6.827 -2.56,-1.707 -5.12,-2.56 -7.68,-0.853 -31.573,10.24 -65.707,10.24 -97.28,0 -2.56,-0.853 -5.973,-0.853 -7.68,0.853 -1.707,1.706 -3.413,4.267 -3.413,6.827 v 8.919 c -45.204,4.027 -80.921,39.744 -84.948,84.948 H 58.772 c -33.28,0 -59.733,26.453 -59.733,59.733 v 85.333 c 0,16.471 6.486,31.263 17.067,42.011 v 162.789 c 0,33.28 26.453,59.733 59.733,59.733 h 358.4 c 33.28,0 59.733,-26.453 59.733,-59.733 V 288.554 c 10.58,-10.747 17.067,-25.54 17.067,-42.011 V 161.21 Z M 382.185,101.477 H 365.118 C 361.705,75.024 341.225,54.544 314.771,51.13 V 34.064 c 34.988,3.413 63.147,31.573 67.414,67.413 z M 198.718,82.704 c 1.707,0.853 3.413,1.707 5.12,1.707 0.853,0 1.707,0 2.56,-0.853 31.573,-10.24 65.707,-10.24 97.28,0 2.56,0.853 5.12,0.853 7.68,-0.853 1.707,-1.707 3.413,-4.267 3.413,-6.827 V 68.17 c 16.93,3.32 29.988,16.378 33.308,33.308 H 161.997 c 3.32,-16.93 16.378,-29.988 33.308,-33.308 v 7.708 c 0,2.559 1.707,5.119 3.413,6.826 z m 13.654,-64 c 28.16,7.68 57.173,7.68 85.333,0 v 5.973 34.133 5.12 c -28.16,-6.827 -57.173,-6.827 -85.333,0 V 58.81 24.677 Z m -17.067,15.36 V 51.13 c -25.6,3.413 -46.933,23.893 -50.347,50.347 h -17.067 c 3.414,-35.84 31.574,-64 67.414,-67.413 z M 41.058,303.66 c 5.766,1.83 11.935,2.617 17.714,2.617 h 145.067 v 17.067 c 0,14.507 11.093,25.6 25.6,25.6 h 51.2 c 14.507,0 25.6,-11.093 25.6,-25.6 v -17.067 h 145.067 c 0.651,0 1.309,-0.02 1.969,-0.049 8.462,-0.267 16.449,-2.239 23.631,-5.602 V 442.81 H 33.172 V 300.626 c 2.534,1.187 5.166,2.206 7.886,3.034 z m 248.114,-5.916 v 25.6 c 0,5.12 -3.413,8.533 -8.533,8.533 h -51.2 c -5.12,0 -8.533,-3.413 -8.533,-8.533 v -25.6 -25.6 c 0,-5.12 3.413,-8.533 8.533,-8.533 h 51.2 c 5.12,0 8.533,3.413 8.533,8.533 z M 434.238,494.01 h -358.4 c -20.48,0 -37.547,-14.507 -41.813,-34.133 h 442.027 c -4.267,19.627 -21.333,34.133 -41.814,34.133 z m 59.734,-247.466 c 0,11.765 -4.558,22.282 -12.031,29.934 -0.885,0.353 -1.718,0.882 -2.476,1.639 -7.68,6.827 -17.92,11.093 -28.16,11.093 H 306.238 v -17.067 c 0,-14.507 -11.093,-25.6 -25.6,-25.6 h -51.2 c -14.507,0 -25.6,11.093 -25.6,25.6 V 289.21 H 58.772 c -9.425,0 -18.845,-3.619 -26.274,-8.852 C 22.472,272.612 16.105,260.449 16.105,246.544 V 161.21 c 0,-23.893 18.773,-42.667 42.667,-42.667 h 59.733 34.133 204.8 34.133 59.733 c 23.893,0 42.667,18.773 42.667,42.667 v 85.334 z"
             inkscape:connector-curvature="0"
             style="stroke-width:1.21916699" />
        </g>
      </g>
      <g
         id="g4573" />
      <g
         id="g4575" />
      <g
         id="g4577" />
      <g
         id="g4579" />
      <g
         id="g4581" />
      <g
         id="g4583" />
      <g
         id="g4585" />
      <g
         id="g4587" />
      <g
         id="g4589" />
      <g
         id="g4591" />
      <g
         id="g4593" />
      <g
         id="g4595" />
      <g
         id="g4597" />
      <g
         id="g4599" />
      <g
         id="g4601" />
    </g>
  </g>
</svg>
