<?xml version="1.0" encoding="UTF-8" standalone="no"?>
<!-- Created with Inkscape (http://www.inkscape.org/) -->

<svg
   xmlns:dc="http://purl.org/dc/elements/1.1/"
   xmlns:cc="http://creativecommons.org/ns#"
   xmlns:rdf="http://www.w3.org/1999/02/22-rdf-syntax-ns#"
   xmlns:svg="http://www.w3.org/2000/svg"
   xmlns="http://www.w3.org/2000/svg"
   xmlns:sodipodi="http://sodipodi.sourceforge.net/DTD/sodipodi-0.dtd"
   xmlns:inkscape="http://www.inkscape.org/namespaces/inkscape"
   width="210mm"
   height="297mm"
   viewBox="0 0 210 297"
   version="1.1"
   id="svg8"
   inkscape:version="0.92.2 (30a58d1, 2017-08-07)"
   sodipodi:docname="hexagono-about.svg">
  <g
     inkscape:label="Capa 1"
     inkscape:groupmode="layer"
     id="layer1">
    <path
       sodipodi:type="star"
       id="path3739"
       sodipodi:sides="6"
       sodipodi:cx="99.029752"
       sodipodi:cy="124.64287"
       sodipodi:r1="99.029755"
       sodipodi:r2="85.762283"
       sodipodi:arg1="-1.5707963"
       sodipodi:arg2="-1.0471976"
       inkscape:flatsided="true"
       inkscape:rounded="0.06"
       inkscape:randomized="0"
       d="m 99.029757,25.613113 c 5.941783,1e-6 82.791393,44.369143 85.762283,49.51488 2.97089,5.145737 2.97089,93.884017 0,99.029757 -2.9709,5.14573 -79.8205,49.51487 -85.762288,49.51487 -5.941785,0 -82.791389,-44.36914 -85.762282,-49.51488 -2.970892,-5.14573 -2.97089,-93.884015 3e-6,-99.029752 2.970892,-5.145736 79.820499,-49.514875 85.762284,-49.514875 z"
       inkscape:transform-center-x="1.8761905e-06"
       inkscape:transform-center-y="-1.3607799e-06" />
    <path
       style="fill:#ffffff;stroke-width:0.26458332"
       d="M 88.162981,218.57035 C 61.12583,204.89939 14.594698,176.88115 13.292592,173.48791 c -0.849417,-2.21355 -1.920396,-29.91301 -1.90905,-49.37508 0.01332,-22.85262 1.089961,-46.239422 2.226447,-48.362962 2.141257,-4.00098 51.906405,-33.781246 76.543564,-45.804905 l 8.876204,-4.33185 8.132723,3.941574 c 24.27202,11.763565 75.1397,42.136186 77.28613,46.146821 1.10767,2.06972 2.26356,27.176872 2.26356,49.167282 0,18.88558 -1.08879,46.45226 -1.92029,48.61912 -1.80964,4.71584 -79.55135,49.68738 -85.814156,49.64124 -1.003956,-0.008 -5.870588,-2.05885 -10.814743,-4.5588 z"
       id="path71"
       inkscape:connector-curvature="0" />
    <g
       id="g121"
       transform="matrix(2.2843392,0,0,2.2603658,36.565245,61.947041)"
       style="stroke-width:0.11643749">
      <path
         id="path66"
         d="M 55,27.5 C 55,12.337 42.663,0 27.5,0 12.337,0 0,12.337 0,27.5 0,35.509 3.444,42.728 8.926,47.758 L 8.9,47.781 9.792,48.533 c 0.058,0.049 0.121,0.089 0.179,0.137 0.474,0.393 0.965,0.766 1.465,1.127 0.162,0.117 0.324,0.234 0.489,0.348 0.534,0.368 1.082,0.717 1.642,1.048 0.122,0.072 0.245,0.142 0.368,0.212 0.613,0.349 1.239,0.678 1.88,0.98 0.047,0.022 0.095,0.042 0.142,0.064 2.089,0.971 4.319,1.684 6.651,2.105 0.061,0.011 0.122,0.022 0.184,0.033 0.724,0.125 1.456,0.225 2.197,0.292 0.09,0.008 0.18,0.013 0.271,0.021 0.738,0.061 1.484,0.1 2.24,0.1 0.749,0 1.488,-0.039 2.222,-0.098 0.093,-0.008 0.186,-0.013 0.279,-0.021 0.735,-0.067 1.461,-0.164 2.178,-0.287 0.062,-0.011 0.125,-0.022 0.187,-0.034 2.297,-0.412 4.495,-1.109 6.557,-2.055 0.076,-0.035 0.153,-0.068 0.229,-0.104 0.617,-0.29 1.22,-0.603 1.811,-0.936 0.147,-0.083 0.293,-0.167 0.439,-0.253 0.538,-0.317 1.067,-0.648 1.581,-1 0.185,-0.126 0.366,-0.259 0.549,-0.391 0.439,-0.316 0.87,-0.642 1.289,-0.983 0.093,-0.075 0.193,-0.14 0.284,-0.217 L 46.02,47.857 45.993,47.834 C 51.523,42.802 55,35.55 55,27.5 Z m -53,0 C 2,13.439 13.439,2 27.5,2 41.561,2 53,13.439 53,27.5 c 0,7.577 -3.325,14.389 -8.589,19.063 -0.294,-0.203 -0.59,-0.385 -0.893,-0.537 l -8.467,-4.233 c -0.76,-0.38 -1.232,-1.144 -1.232,-1.993 v -2.957 c 0.196,-0.242 0.403,-0.516 0.617,-0.817 1.096,-1.548 1.975,-3.27 2.616,-5.123 1.267,-0.602 2.085,-1.864 2.085,-3.289 v -3.545 c 0,-0.867 -0.318,-1.708 -0.887,-2.369 V 17.033 C 38.302,16.514 38.486,13.585 36.367,11.169 34.524,9.065 31.541,8 27.5,8 c -4.041,0 -7.024,1.065 -8.867,3.168 -2.119,2.416 -1.935,5.345 -1.883,5.864 v 4.667 c -0.568,0.661 -0.887,1.502 -0.887,2.369 v 3.545 c 0,1.101 0.494,2.128 1.34,2.821 0.81,3.173 2.477,5.575 3.093,6.389 v 2.894 c 0,0.816 -0.445,1.566 -1.162,1.958 l -7.907,4.313 c -0.252,0.137 -0.502,0.297 -0.752,0.476 C 5.276,41.792 2,35.022 2,27.5 Z m 40.459,20.632 c -0.35,0.254 -0.706,0.5 -1.067,0.735 -0.166,0.108 -0.331,0.216 -0.5,0.321 -0.472,0.292 -0.952,0.57 -1.442,0.83 -0.108,0.057 -0.217,0.111 -0.326,0.167 -1.126,0.577 -2.291,1.073 -3.488,1.476 -0.042,0.014 -0.084,0.029 -0.127,0.043 -0.627,0.208 -1.262,0.393 -1.904,0.552 -0.002,0 -0.004,10e-4 -0.006,10e-4 -0.648,0.16 -1.304,0.293 -1.964,0.402 -0.018,0.003 -0.036,0.007 -0.054,0.01 -0.621,0.101 -1.247,0.174 -1.875,0.229 -0.111,0.01 -0.222,0.017 -0.334,0.025 C 28.751,52.97 28.127,53 27.5,53 c -0.634,0 -1.266,-0.031 -1.895,-0.078 -0.109,-0.008 -0.218,-0.015 -0.326,-0.025 -0.634,-0.056 -1.265,-0.131 -1.89,-0.233 -0.028,-0.005 -0.056,-0.01 -0.084,-0.015 -1.322,-0.221 -2.623,-0.546 -3.89,-0.971 -0.039,-0.013 -0.079,-0.027 -0.118,-0.04 -0.629,-0.214 -1.251,-0.451 -1.862,-0.713 -0.004,-0.002 -0.009,-0.004 -0.013,-0.006 -0.578,-0.249 -1.145,-0.525 -1.705,-0.816 -0.073,-0.038 -0.147,-0.074 -0.219,-0.113 -0.511,-0.273 -1.011,-0.568 -1.504,-0.876 -0.146,-0.092 -0.291,-0.185 -0.435,-0.279 -0.454,-0.297 -0.902,-0.606 -1.338,-0.933 -0.045,-0.034 -0.088,-0.07 -0.133,-0.104 0.032,-0.018 0.064,-0.036 0.096,-0.054 l 7.907,-4.313 c 1.36,-0.742 2.205,-2.165 2.205,-3.714 l -10e-4,-3.602 -0.23,-0.278 c -0.022,-0.025 -2.184,-2.655 -3.001,-6.216 l -0.091,-0.396 -0.341,-0.221 c -0.481,-0.311 -0.769,-0.831 -0.769,-1.392 v -3.545 c 0,-0.465 0.197,-0.898 0.557,-1.223 l 0.33,-0.298 v -5.57 L 18.741,16.845 C 18.738,16.821 18.443,14.416 20.137,12.485 21.583,10.837 24.061,10 27.5,10 c 3.426,0 5.896,0.83 7.346,2.466 1.692,1.911 1.415,4.361 1.413,4.381 l -0.009,5.701 0.33,0.298 c 0.359,0.324 0.557,0.758 0.557,1.223 v 3.545 c 0,0.713 -0.485,1.36 -1.181,1.575 l -0.497,0.153 -0.16,0.495 c -0.59,1.833 -1.43,3.526 -2.496,5.032 -0.262,0.37 -0.517,0.698 -0.736,0.949 l -0.248,0.283 V 39.8 c 0,1.612 0.896,3.062 2.338,3.782 l 8.467,4.233 c 0.054,0.027 0.107,0.055 0.16,0.083 -0.107,0.081 -0.217,0.156 -0.325,0.234 z"
         inkscape:connector-curvature="0"
         style="stroke-width:0.11643749" />
      <g
         id="g68"
         style="stroke-width:0.11643749" />
      <g
         id="g70"
         style="stroke-width:0.11643749" />
      <g
         id="g72"
         style="stroke-width:0.11643749" />
      <g
         id="g74"
         style="stroke-width:0.11643749" />
      <g
         id="g76"
         style="stroke-width:0.11643749" />
      <g
         id="g78"
         style="stroke-width:0.11643749" />
      <g
         id="g80"
         style="stroke-width:0.11643749" />
      <g
         id="g82"
         style="stroke-width:0.11643749" />
      <g
         id="g84"
         style="stroke-width:0.11643749" />
      <g
         id="g86"
         style="stroke-width:0.11643749" />
      <g
         id="g88"
         style="stroke-width:0.11643749" />
      <g
         id="g90"
         style="stroke-width:0.11643749" />
      <g
         id="g92"
         style="stroke-width:0.11643749" />
      <g
         id="g94"
         style="stroke-width:0.11643749" />
      <g
         id="g96"
         style="stroke-width:0.11643749" />
    </g>
  </g>
</svg>
